<?xml version="1.0" encoding="UTF-8"?>
<svg version="1.1" viewBox="0 0 1888 844" width="1280" height="1280" xmlns="http://www.w3.org/2000/svg">
<path transform="translate(0)" d="m0 0h1888v844h-1888z" fill="#FDFDFC"/>
<path transform="translate(1416,198)" d="m0 0h22l24 4 16 5 18 8 15 10 10 9 8 7 8 9 9 13 11 21 5 15 4 20v31l-2 13-7 23-8 16-9 14-8 10-11 12-9 7-15 9-16 8-17 6-14 3-17 2h-10l-23-3-16-4-15-5-20-11-11-8-9-8-7-8-1-3h-2l-6-8-8-12-9-19-5-18-3-17v-28l3-19 5-16 10-20 8-12h2l2-5 9-10 22-18 17-10 15-6 14-4z" fill="#FDFDFC"/>
<path transform="translate(1416,198)" d="m0 0h22l24 4 16 5 18 8 15 10 10 9 8 7 8 9 9 13 11 21 5 15 4 20v31l-2 13-7 23-8 16-9 14-8 10-11 12-9 7-15 9-16 8-17 6-14 3-17 2h-10l-23-3-16-4-15-5-20-11-11-8-9-8-7-8-1-3h-2l-6-8-8-12-9-19-5-18-3-17v-28l3-19 5-16 10-20 8-12h2l2-5 9-10 22-18 17-10 15-6 14-4zm4 37-19 3-15 5-12 6-10 7-10 9-9 10-6 9-4 8-6 16-3 13-1 15 2 18 4 14 6 15 7 11 10 11 5 5 8 7 14 8 13 5 9 3 15 2h19l20-4 16-6 12-7 9-7 3-2v-2h2l9-11 11-17 6-17 3-14v-27l-4-15-6-16-6-10-7-9-10-11-12-9-14-8-11-4-16-3z" fill="#E6222F"/>
<path transform="translate(323,226)" d="m0 0h23l14 4 16 8 10 9 9 11 7 14 4 16v19l-3 13-5 10-3 5 1 4 4 8-1 7-4 8-9 4h-9v-2h-4l-1-2-8-1-11 5h-36l-12-5-11-6-13-11-8-11-5-11-4-14v-23l4-15 7-14 9-10 11-9 14-7z" fill="#E6222F"/>
<path transform="translate(1071,226)" d="m0 0 10 2 9 8 6 13 11 31 7 20 4 10 10-28 11-30 4-10 7-10 8-5h14l6 3 7 6 4 8-1 112-6 7-7 3h-8l-6-3-4-5-1-4-1-58-13 37-6 17-6 11-6 5h-15l-2-5h-3l-5-11-8-27-9-28-1 55-4 10-7 6-6 1-6-1-9-8-1-4-1-32v-57l1-19 3-9 10-8 4-2z" fill="#E6222F"/>
<path transform="translate(704,226)" d="m0 0 10 2 8 7 1 2v114l-5 8-9 7-6 1-9-2-8-7-15-24-9-15-12-19-6-10v22l-1 43-4 6-7 5h-12l-9-8-1-2-1-23v-69l1-24 7-8 5-4 2-1h13l8 5 7 9 12 20 19 32 6 9 1-66 8-8z" fill="#E6222F"/>
<path transform="translate(847,227)" d="m0 0h43l12 3 10 5 7 7 5 9 3 8 1 13-2 12-4 9-4 6-9 10 2 5 11 19 6 9 2 4v6l-4 6-6 7-8 2-7-1-9-9-6-12-10-18-8-14h-3v37l-4 10-3 3-10 4-5-1-7-4-4-5-1-3v-116l4-6 5-4z" fill="#E6222F"/>
<path transform="translate(955,226)" d="m0 0 8 2 8 7 2 5v81l2 7 7 5h8l8-4 2-5 1-86 4-6 6-5 8-1 10 4 5 6 1 6-1 90-4 11-7 10-8 6-13 6-4 1h-22l-14-5-6-4-7-6-6-8-4-10-1-27 1-68 4-6 5-4z" fill="#E6222F"/>
<path transform="translate(527,227)" d="m0 0h58l8 6 3 5 1 2-1 9-4 6-5 4-7 1h-29l-1 3v15l3 1 32 1 6 3 4 5 2 3v7l-4 8-6 5-4 1-32 1-1 1v19h35l6 3 6 8v8l-3 6-7 7-6 1h-46l-10-1-6-4-3-6-1-10v-101l2-9 8-7z" fill="#E6222F"/>
<path transform="translate(422,227)" d="m0 0h65l7 3 5 4 3 5 1 8-3 9-10 15-12 20-6 9-4 7-12 19-3 6 38 1 5 2 5 6 2 7-2 8-6 7-7 3h-63l-9-6-6-12 2-7 6-12 11-15 16-26 5-8 7-10 5-8 1-3-19 1h-20l-7-3-5-7-1-9 3-7z" fill="#E6222F"/>
<path transform="translate(1551,418)" d="m0 0h5l6 7 7 6 10 10v2l3 1 25 25 7 6 6 9 3 7v10l-3 10-1 2h-2l-2 4-8 7-9 3h-13l-8-2-10-8-44-44-6-5-4-5-3-2 1-4 13-10h2v-2l5-4h2l4-8 5-5z" fill="#E6222F"/>
<path transform="translate(746,227)" d="m0 0h66l6 3 5 5 3 8-1 6-6 7-8 4h-15v90l-2 8-5 5-5 3h-11l-6-3-4-5-1-4-1-93-18-2-7-6-2-4v-10l4-7 5-4z" fill="#E6222F"/>
<path transform="translate(329,258)" d="m0 0 15 1 12 5 10 10 5 10 1 3v18l-3 7-6-2-5-2-8 1-5 4-3 5v10l1 5-1 1h-13l-9-3-8-4-9-9-6-13-1-4v-9l4-13 8-11 11-7 4-2z" fill="#FDFDFC"/>
<path transform="translate(1360,321)" d="m0 0 9 1 9 10 7 16 5 12 6 11 11 12 10 8 15 10 10 7-1 4-2 1h-14l-12-2-15-6-11-7-6-4v-2l-4-2-9-8-9-14-4-10-3-12v-16l3-6z" fill="#E6222F"/>
<path transform="translate(657,431)" d="m0 0h14l7 4 7 8 2 6v27l-1 1h-5l-2-4-4 1-7 3h-10l-9-5-5-5-4-9v-8l4-9 5-6z" fill="#1B0D10"/>
<path transform="translate(460,430)" d="m0 0 11 1 6 4 5 5 4 8 1 8-2 1-36 2 2 4 6 5h11l9-4h4l-1 6-8 6-4 1h-11l-9-5-6-7-2-5v-11l3-8 9-8z" fill="#1D0D10"/>
<path transform="translate(919,431)" d="m0 0h13l6 3 5 4 4 6 2 7-1 6-15 1h-22l2 5 1 3 5 2h10l11-5 3 1v5l-7 6-5 2h-11l-7-3-5-4-5-8-1-4v-8l4-10 8-7z" fill="#1D0D10"/>
<path transform="translate(1094,431)" d="m0 0h13l6 3 6 5 5 10 1 5-3 3-13 1h-22l1 5 6 5 7 1 11-4 3-2h4l-2 7-6 5-5 2h-12l-10-6-5-7-2-6v-9l5-10 9-7z" fill="#1D0D10"/>
<path transform="translate(549,420)" d="m0 0h7l8 4 3 5 1 5v21l-2 6-2 4-7 4h-10l-6-4-4-7-1-5v-15l2-10 5-5z" fill="#FEFEFD"/>
<path transform="translate(550,412)" d="m0 0 10 1 9 6 5 7 2 8v22l-2 8v5l4 6-1 5-6-1-4-6-10 4h-10l-8-4-5-5-4-6-2-12 1-18 3-8 7-8 6-3zm-1 8-8 4-4 7-1 7v15l3 9 4 5 4 2h10l7-4 3-5 1-5v-21l-2-7-5-5-5-2z" fill="#1C0D10"/>
<path transform="translate(388,408)" d="m0 0 4 1 1 6v16l1 5 9-5h12l8 4 6 7 2 4 1 8v22l-1 1-7-1-1-27-2-6-5-2-4-2-9 1-6 4-3 5-1 24-1 4h-6l-1-7v-61z" fill="#1E0D10"/>
<path transform="translate(768,430)" d="m0 0 4 2 4 6 12 27h2l10-23 7-12h4l1 6-4 10-8 18-8 16-6 11-7 6-9 3-6-2-1-5 12-3 7-8 1-8-11-23-6-16z" fill="#1B0D10"/>
<path transform="translate(875,412)" d="m0 0 10 1 10 6 1 4-3 2-5-1-6-3h-8l-8 5-2 5-1 6v16l2 8 4 5 4 2h10l8-4 5 1-1 5-6 5-12 3-10-3-8-7-4-7-1-5v-20l2-9 4-6 7-6z" fill="#1D0D10"/>
<path transform="translate(587,431)" d="m0 0h5l1 1 1 20 2 10 5 5 9 2 8-3 4-4 1-3 2-27 6-1 1 1v45l-3 1-4-3v-3l-12 5h-10l-9-5-6-7-2-4-1-7v-14l1-8z" fill="#1C0D10"/>
<path transform="translate(958,431)" d="m0 0h4l2 3 5-1 6-2h11l8 4 7 8 2 5 1 7v15l-2 7h-5l-1-1-1-22-2-8-5-5-4-2h-7l-6 3-4 5-2 9-1 20-1 1h-5l-1-1-1-33 1-11z" fill="#1B0D10"/>
<path transform="translate(330,412)" d="m0 0h42l3 2v6l-18 1-1 54-6 2-2-1v-55l-19-1v-7z" fill="#1E0D10"/>
<path transform="translate(663,438)" d="m0 0 7 1 7 6 2 4v10l-5 7-7 4-9-1-7-5-3-7v-7l4-7 6-4z" fill="#FEFEFD"/>
<path transform="translate(1015,412)" d="m0 0 4 1 2 3v14l13 1 1 5-2 2-11 1v25l1 5 11-2 4-1 1 3-3 5-5 3h-7l-6-3-4-6-1-4v-48z" fill="#210E11"/>
<path transform="translate(737,412)" d="m0 0 3 1 1 7v7l1 3 13 1-1 7-2 1h-10v27l1 2h7l8-1v5l-3 3-11 2-7-3-4-8v-51l1-2z" fill="#1C0D10"/>
<path transform="translate(871,259)" d="m0 0 15 1 8 5 1 6-4 8-2 2h-20l-1-1v-17l1-3z" fill="#FEFEFD"/>
<path transform="translate(700,407)" d="m0 0 4 2v68h-6l-1-1v-66z" fill="#120C0E"/>
<path transform="translate(1048,431)" d="m0 0 4 1 1 3 12-4h7l1 1v5l-9 3-6 5h-2l-1 6-1 23-5 5-2-5v-42z" fill="#170C0F"/>
<path transform="translate(715,432)" d="m0 0h8v44l-2 1h-6z" fill="#1A0D0F"/>
<path transform="translate(460,438)" d="m0 0h7l6 3 5 6v3h-30l2-5 7-6z" fill="#FEFEFD"/>
<path transform="translate(1098,438)" d="m0 0h7l8 6 3 4v2h-30l1-5 6-5z" fill="#FEFEFD"/>
<path transform="translate(924,438)" d="m0 0 8 1 7 6 1 5-29 1 1-6 6-5z" fill="#FEFEFD"/>
<path transform="translate(717,413)" d="m0 0h5l2 2v5h-9l-1-5z" fill="#2D0F12"/>
</svg>
